<mxfile host="www.draw.io" agent="Mozilla/5.0 (Windows NT 10.0; Win64; x64) AppleWebKit/537.36 (KHTML, like Gecko) Chrome/129.0.0.0 Safari/537.36 Edg/129.0.0.0" version="24.7.17">
  <diagram name="第 1 页" id="S7V4wpsTGMjibYfqhZl-">
    <mxGraphModel dx="1149" dy="653" grid="0" gridSize="10" guides="1" tooltips="1" connect="1" arrows="1" fold="1" page="1" pageScale="1" pageWidth="1169" pageHeight="827" math="0" shadow="0">
      <root>
        <mxCell id="0" />
        <mxCell id="1" parent="0" />
        <mxCell id="r654JRI5H9GFpRSmJriH-13" value="" style="rounded=1;whiteSpace=wrap;html=1;comic=0;align=center;verticalAlign=middle;fontFamily=Helvetica;fontSize=16;container=0;" vertex="1" parent="1">
          <mxGeometry x="435" y="344" width="346" height="306" as="geometry" />
        </mxCell>
        <mxCell id="r654JRI5H9GFpRSmJriH-24" style="edgeStyle=orthogonalEdgeStyle;rounded=0;orthogonalLoop=1;jettySize=auto;html=1;exitX=1;exitY=0.5;exitDx=0;exitDy=0;entryX=0;entryY=0.5;entryDx=0;entryDy=0;fontFamily=Helvetica;fontSize=16;fontColor=default;" edge="1" parent="1" source="r654JRI5H9GFpRSmJriH-1" target="r654JRI5H9GFpRSmJriH-4">
          <mxGeometry relative="1" as="geometry" />
        </mxCell>
        <mxCell id="r654JRI5H9GFpRSmJriH-25" value="发起语音识别请求" style="edgeLabel;html=1;align=center;verticalAlign=middle;resizable=0;points=[];rounded=1;comic=0;strokeColor=#d6b656;fontFamily=Helvetica;fontSize=16;fontColor=default;fillColor=#fff2cc;labelBorderColor=default;textShadow=1;" vertex="1" connectable="0" parent="r654JRI5H9GFpRSmJriH-24">
          <mxGeometry x="-0.3625" y="2" relative="1" as="geometry">
            <mxPoint x="17" y="2" as="offset" />
          </mxGeometry>
        </mxCell>
        <mxCell id="r654JRI5H9GFpRSmJriH-1" value="&lt;font style=&quot;font-size: 16px;&quot;&gt;客户端&lt;/font&gt;" style="rounded=1;whiteSpace=wrap;html=1;fillColor=#dae8fc;strokeColor=#6c8ebf;comic=0;" vertex="1" parent="1">
          <mxGeometry x="67" y="392.5" width="120" height="60" as="geometry" />
        </mxCell>
        <mxCell id="r654JRI5H9GFpRSmJriH-20" style="edgeStyle=orthogonalEdgeStyle;rounded=0;orthogonalLoop=1;jettySize=auto;html=1;exitX=1;exitY=0.5;exitDx=0;exitDy=0;entryX=0.995;entryY=0.63;entryDx=0;entryDy=0;entryPerimeter=0;fontFamily=Helvetica;fontSize=16;fontColor=default;" edge="1" parent="1" source="r654JRI5H9GFpRSmJriH-7" target="r654JRI5H9GFpRSmJriH-16">
          <mxGeometry relative="1" as="geometry">
            <Array as="points">
              <mxPoint x="874" y="574" />
              <mxPoint x="874" y="129" />
            </Array>
          </mxGeometry>
        </mxCell>
        <mxCell id="r654JRI5H9GFpRSmJriH-21" value="服务器启动时，&lt;div&gt;向注册中心注册&lt;/div&gt;&lt;div&gt;服务名称和服务地址&lt;/div&gt;" style="edgeLabel;html=1;align=center;verticalAlign=middle;resizable=0;points=[];rounded=1;comic=0;strokeColor=#d6b656;fontFamily=Helvetica;fontSize=16;fontColor=default;fillColor=#fff2cc;container=0;fixDash=0;perimeter=rectanglePerimeter;labelBorderColor=default;textShadow=1;" vertex="1" connectable="0" parent="r654JRI5H9GFpRSmJriH-20">
          <mxGeometry x="-0.0887" y="-2" relative="1" as="geometry">
            <mxPoint as="offset" />
          </mxGeometry>
        </mxCell>
        <mxCell id="r654JRI5H9GFpRSmJriH-23" value="" style="group" vertex="1" connectable="0" parent="1">
          <mxGeometry x="556" y="84" width="114" height="103" as="geometry" />
        </mxCell>
        <mxCell id="r654JRI5H9GFpRSmJriH-16" value="" style="aspect=fixed;sketch=0;html=1;dashed=0;whitespace=wrap;verticalLabelPosition=bottom;verticalAlign=top;fillColor=#2875E2;strokeColor=#ffffff;points=[[0.005,0.63,0],[0.1,0.2,0],[0.9,0.2,0],[0.5,0,0],[0.995,0.63,0],[0.72,0.99,0],[0.5,1,0],[0.28,0.99,0]];shape=mxgraph.kubernetes.icon2;kubernetesLabel=1;prIcon=etcd;rounded=1;comic=0;align=center;fontFamily=Helvetica;fontSize=16;fontColor=default;" vertex="1" parent="r654JRI5H9GFpRSmJriH-23">
          <mxGeometry x="22" width="75" height="72" as="geometry" />
        </mxCell>
        <mxCell id="r654JRI5H9GFpRSmJriH-22" value="服务注册中心" style="text;html=1;align=center;verticalAlign=middle;resizable=0;points=[];autosize=1;strokeColor=none;fillColor=none;fontFamily=Helvetica;fontSize=16;fontColor=default;" vertex="1" parent="r654JRI5H9GFpRSmJriH-23">
          <mxGeometry y="72" width="114" height="31" as="geometry" />
        </mxCell>
        <mxCell id="r654JRI5H9GFpRSmJriH-26" style="edgeStyle=orthogonalEdgeStyle;rounded=0;orthogonalLoop=1;jettySize=auto;html=1;exitX=0.25;exitY=1;exitDx=0;exitDy=0;fontFamily=Helvetica;fontSize=16;fontColor=default;" edge="1" parent="1" source="r654JRI5H9GFpRSmJriH-4" target="r654JRI5H9GFpRSmJriH-5">
          <mxGeometry relative="1" as="geometry" />
        </mxCell>
        <mxCell id="r654JRI5H9GFpRSmJriH-27" value="服务调用" style="edgeLabel;html=1;align=center;verticalAlign=middle;resizable=0;points=[];rounded=1;comic=0;strokeColor=#d6b656;fontFamily=Helvetica;fontSize=16;fontColor=default;fillColor=#fff2cc;" vertex="1" connectable="0" parent="r654JRI5H9GFpRSmJriH-26">
          <mxGeometry x="-0.033" y="-1" relative="1" as="geometry">
            <mxPoint as="offset" />
          </mxGeometry>
        </mxCell>
        <mxCell id="r654JRI5H9GFpRSmJriH-4" value="RPC服务器" style="rounded=1;whiteSpace=wrap;html=1;comic=0;strokeColor=#d6b656;align=center;verticalAlign=middle;fontFamily=Helvetica;fontSize=16;fontColor=default;fillColor=#fff2cc;container=0;" vertex="1" parent="1">
          <mxGeometry x="461" y="389.5" width="266" height="66" as="geometry" />
        </mxCell>
        <mxCell id="r654JRI5H9GFpRSmJriH-5" value="语音识别客户端" style="rounded=1;whiteSpace=wrap;html=1;comic=0;strokeColor=#82b366;align=center;verticalAlign=middle;fontFamily=Helvetica;fontSize=14;fillColor=#d5e8d4;container=0;" vertex="1" parent="1">
          <mxGeometry x="468" y="546" width="120" height="60" as="geometry" />
        </mxCell>
        <mxCell id="r654JRI5H9GFpRSmJriH-7" value="etcd服务注册客户端" style="rounded=1;whiteSpace=wrap;html=1;comic=0;strokeColor=#6c8ebf;align=center;verticalAlign=middle;fontFamily=Helvetica;fontSize=14;fillColor=#dae8fc;container=0;" vertex="1" parent="1">
          <mxGeometry x="610" y="546" width="137" height="60" as="geometry" />
        </mxCell>
        <mxCell id="r654JRI5H9GFpRSmJriH-14" value="&lt;div style=&quot;background-color: rgb(255, 255, 255); font-family: Consolas, &amp;quot;Courier New&amp;quot;, monospace; font-size: 17px; line-height: 23px; white-space-collapse: preserve;&quot;&gt;&lt;span style=&quot;color: #267f99;&quot;&gt;SpeechServer服务器&lt;/span&gt;&lt;/div&gt;" style="text;html=1;align=center;verticalAlign=middle;resizable=0;points=[];autosize=1;strokeColor=none;fillColor=none;fontFamily=Helvetica;fontSize=16;fontColor=default;fontStyle=1;container=0;" vertex="1" parent="1">
          <mxGeometry x="498" y="354.5" width="184" height="35" as="geometry" />
        </mxCell>
      </root>
    </mxGraphModel>
  </diagram>
</mxfile>
